<svg width="369" height="705" viewBox="0 0 369 705" fill="none" xmlns="http://www.w3.org/2000/svg">
<path d="M369 167.321H364.934V61.3394C364.934 45.0712 358.142 29.4693 346.051 17.9659C333.961 6.46256 317.563 2.05273e-05 300.464 1.9534e-10H64.4696C56.0034 -2.03278e-05 47.62 1.58655 39.7982 4.66912C31.9764 7.7517 24.8693 12.2699 18.8828 17.9658C12.8962 23.6617 8.14741 30.4236 4.9075 37.8657C1.66759 45.3077 1.73593e-05 53.284 0 61.3392V642.764C-9.34729e-06 650.819 1.66755 658.795 4.90744 666.237C8.14733 673.679 12.8961 680.441 18.8826 686.137C24.8692 691.833 31.9762 696.351 39.798 699.434C47.6198 702.517 56.0032 704.103 64.4695 704.103H300.464C317.562 704.103 333.961 697.641 346.051 686.137C358.141 674.634 364.934 659.032 364.934 642.764V242.761H369L369 167.321Z" fill="#E6E6E6"/>
<path d="M303.066 15.9584H272.261C273.677 19.263 274.218 22.8483 273.835 26.3985C273.452 29.9487 272.158 33.3549 270.066 36.3169C267.973 39.279 265.148 41.7061 261.837 43.3843C258.527 45.0626 254.834 45.9405 251.083 45.9408H115.884C112.133 45.9406 108.44 45.0626 105.13 43.3844C101.819 41.7061 98.9936 39.2791 96.9014 36.317C94.8092 33.3549 93.5146 29.9487 93.1319 26.3985C92.7491 22.8483 93.2899 19.263 94.7065 15.9584H65.9344C53.1656 15.9584 40.9197 20.7846 31.8907 29.3751C22.8618 37.9657 17.7893 49.617 17.7893 61.7659V642.337C17.7893 648.353 19.0346 654.309 21.4541 659.867C23.8736 665.425 27.42 670.474 31.8907 674.728C36.3614 678.982 41.6689 682.356 47.5101 684.658C53.3513 686.96 59.6119 688.145 65.9344 688.145H303.066C309.388 688.145 315.649 686.96 321.49 684.658C327.331 682.356 332.639 678.982 337.11 674.728C341.58 670.474 345.127 665.425 347.546 659.867C349.966 654.309 351.211 648.353 351.211 642.337V61.7659C351.211 55.7504 349.966 49.7938 347.546 44.2361C345.127 38.6785 341.58 33.6287 337.11 29.3751C332.639 25.1215 327.331 21.7473 321.49 19.4453C315.649 17.1433 309.388 15.9584 303.066 15.9584V15.9584Z" fill="white"/>
<path d="M328.262 176.567H40.6245C39.2123 176.565 37.8584 176.031 36.8598 175.081C35.8612 174.131 35.2995 172.843 35.2979 171.499V103.613C35.2995 102.269 35.8612 100.981 36.8598 100.031C37.8584 99.0806 39.2123 98.5461 40.6245 98.5445H328.262C329.674 98.5461 331.028 99.0806 332.026 100.031C333.025 100.981 333.587 102.269 333.588 103.613V171.499C333.587 172.843 333.025 174.131 332.026 175.081C331.028 176.031 329.674 176.565 328.262 176.567ZM40.6245 100.572C39.7771 100.573 38.9647 100.893 38.3656 101.463C37.7664 102.033 37.4294 102.806 37.4285 103.613V171.499C37.4294 172.305 37.7664 173.078 38.3656 173.648C38.9647 174.218 39.7771 174.539 40.6245 174.54H328.262C329.109 174.539 329.921 174.218 330.521 173.648C331.12 173.078 331.457 172.305 331.458 171.499V103.613C331.457 102.806 331.12 102.033 330.521 101.463C329.921 100.893 329.109 100.573 328.262 100.572H40.6245Z" fill="#3F3D56"/>
<path d="M328.262 445.17H40.6245C39.2123 445.169 37.8584 444.634 36.8598 443.684C35.8612 442.734 35.2995 441.446 35.2979 440.102V314.441C35.2995 313.097 35.8612 311.809 36.8598 310.859C37.8584 309.909 39.2123 309.374 40.6245 309.373H328.262C329.674 309.374 331.028 309.909 332.026 310.859C333.025 311.809 333.587 313.097 333.588 314.441V440.102C333.587 441.446 333.025 442.734 332.026 443.684C331.028 444.634 329.674 445.169 328.262 445.17ZM40.6245 311.4C39.7771 311.401 38.9647 311.721 38.3656 312.292C37.7664 312.862 37.4294 313.635 37.4285 314.441V440.102C37.4294 440.908 37.7664 441.681 38.3656 442.251C38.9647 442.821 39.7771 443.142 40.6245 443.143H328.262C329.109 443.142 329.922 442.821 330.521 442.251C331.12 441.681 331.457 440.908 331.458 440.102V314.441C331.457 313.634 331.12 312.862 330.521 312.291C329.922 311.721 329.109 311.401 328.262 311.4L40.6245 311.4Z" fill="#3F3D56"/>
<path d="M326.131 281.981H198.292C196.88 281.979 195.526 281.445 194.528 280.495C193.529 279.545 192.967 278.257 192.966 276.913V209.027C192.967 207.683 193.529 206.395 194.528 205.445C195.526 204.495 196.88 203.96 198.292 203.959H326.131C327.543 203.96 328.897 204.495 329.896 205.445C330.894 206.395 331.456 207.683 331.458 209.027V276.913C331.456 278.257 330.894 279.545 329.896 280.495C328.897 281.445 327.543 281.979 326.131 281.981ZM198.292 205.986C197.445 205.987 196.632 206.307 196.033 206.877C195.434 207.447 195.097 208.22 195.096 209.027V276.913C195.097 277.719 195.434 278.492 196.033 279.062C196.632 279.632 197.445 279.953 198.292 279.954H326.131C326.979 279.953 327.791 279.632 328.39 279.062C328.989 278.492 329.326 277.719 329.327 276.913V209.026C329.326 208.22 328.989 207.447 328.39 206.877C327.791 206.307 326.979 205.987 326.131 205.986L198.292 205.986Z" fill="#E6E6E6"/>
<path d="M168.464 609.373H40.6245C39.2123 609.371 37.8584 608.837 36.8598 607.887C35.8612 606.937 35.2995 605.649 35.2979 604.305V477.63C35.2995 476.287 35.8613 474.998 36.8599 474.048C37.8584 473.098 39.2123 472.564 40.6245 472.562H168.464C169.876 472.564 171.23 473.098 172.228 474.048C173.227 474.998 173.788 476.287 173.79 477.63V604.305C173.788 605.649 173.227 606.937 172.228 607.887C171.23 608.837 169.876 609.371 168.464 609.373ZM40.6245 474.589C39.7771 474.59 38.9647 474.911 38.3656 475.481C37.7664 476.051 37.4294 476.824 37.4285 477.63V604.305C37.4294 605.111 37.7664 605.884 38.3656 606.454C38.9647 607.024 39.7771 607.345 40.6245 607.346H168.464C169.311 607.345 170.123 607.024 170.722 606.454C171.322 605.884 171.659 605.111 171.66 604.305V477.63C171.659 476.824 171.322 476.051 170.722 475.481C170.123 474.911 169.311 474.59 168.464 474.589H40.6245Z" fill="#E6E6E6"/>
<path d="M326.131 609.373H198.292C196.88 609.371 195.526 608.837 194.528 607.887C193.529 606.937 192.967 605.649 192.966 604.305V477.63C192.967 476.287 193.529 474.998 194.528 474.048C195.526 473.098 196.88 472.564 198.292 472.562H326.131C327.543 472.564 328.897 473.098 329.896 474.048C330.894 474.998 331.456 476.287 331.458 477.63V604.305C331.456 605.649 330.894 606.937 329.896 607.887C328.897 608.837 327.543 609.371 326.131 609.373ZM198.292 474.589C197.445 474.59 196.632 474.911 196.033 475.481C195.434 476.051 195.097 476.824 195.096 477.63V604.305C195.097 605.111 195.434 605.884 196.033 606.454C196.632 607.024 197.445 607.345 198.292 607.346H326.131C326.979 607.345 327.791 607.024 328.39 606.454C328.989 605.884 329.326 605.111 329.327 604.305V477.63C329.326 476.824 328.989 476.051 328.39 475.481C327.791 474.911 326.979 474.59 326.131 474.589H198.292Z" fill="#E6E6E6"/>
<path d="M83.1868 374.532C95.1702 374.532 104.885 365.289 104.885 353.888C104.885 342.486 95.1702 333.244 83.1868 333.244C71.2034 333.244 61.489 342.486 61.489 353.888C61.489 365.289 71.2034 374.532 83.1868 374.532Z" fill="#F464D4"/>
<path d="M133.298 340.125C132.339 340.125 131.419 340.487 130.741 341.133C130.063 341.778 129.682 342.653 129.682 343.566C129.682 344.478 130.063 345.353 130.741 345.999C131.419 346.644 132.339 347.006 133.298 347.006H303.781C304.738 347.004 305.656 346.641 306.332 345.996C307.008 345.351 307.388 344.477 307.388 343.566C307.388 342.655 307.008 341.781 306.332 341.136C305.656 340.491 304.738 340.127 303.781 340.125H133.298Z" fill="#F464D4"/>
<path d="M133.298 360.769C132.823 360.768 132.353 360.856 131.914 361.029C131.475 361.201 131.075 361.453 130.739 361.772C130.402 362.091 130.135 362.47 129.953 362.887C129.77 363.304 129.675 363.751 129.674 364.203C129.673 364.655 129.766 365.102 129.947 365.52C130.127 365.938 130.393 366.318 130.728 366.638C131.063 366.958 131.461 367.212 131.9 367.386C132.338 367.56 132.808 367.65 133.283 367.651H206.657C207.133 367.652 207.604 367.563 208.043 367.391C208.483 367.218 208.882 366.965 209.218 366.645C209.555 366.326 209.822 365.946 210.004 365.528C210.186 365.11 210.28 364.662 210.28 364.21C210.28 363.758 210.186 363.31 210.004 362.892C209.822 362.474 209.555 362.095 209.218 361.775C208.882 361.456 208.483 361.202 208.043 361.03C207.604 360.857 207.133 360.769 206.657 360.769H133.298Z" fill="#F464D4"/>
<path d="M66.5438 393.774C63.793 393.774 61.5544 395.317 61.5544 397.214C61.5544 399.111 63.793 400.655 66.5438 400.655H301.757C304.508 400.655 306.747 399.111 306.747 397.214C306.747 395.317 304.508 393.774 301.757 393.774H66.5438Z" fill="#CCCCCC"/>
<path d="M66.5438 414.418C63.793 414.418 61.5544 415.962 61.5544 417.859C61.5544 419.756 63.793 421.3 66.5438 421.3H301.757C304.508 421.3 306.747 419.756 306.747 417.859C306.747 415.962 304.508 414.418 301.757 414.418H66.5438Z" fill="#CCCCCC"/>
<path d="M85.3172 155.595C97.3005 155.595 107.015 146.352 107.015 134.951C107.015 123.549 97.3005 114.307 85.3172 114.307C73.3338 114.307 63.6194 123.549 63.6194 134.951C63.6194 146.352 73.3338 155.595 85.3172 155.595Z" fill="#F464D4"/>
<path d="M135.429 121.188C134.471 121.19 133.554 121.554 132.877 122.199C132.201 122.844 131.821 123.717 131.821 124.629C131.821 125.54 132.201 126.414 132.877 127.059C133.554 127.704 134.471 128.067 135.429 128.069H305.912C306.387 128.071 306.858 127.983 307.297 127.811C307.737 127.639 308.137 127.387 308.473 127.068C308.81 126.749 309.078 126.37 309.261 125.953C309.444 125.536 309.538 125.088 309.539 124.636C309.54 124.184 309.448 123.736 309.267 123.318C309.086 122.9 308.82 122.52 308.484 122.199C308.149 121.879 307.75 121.625 307.311 121.452C306.873 121.278 306.402 121.188 305.927 121.188C305.922 121.188 305.917 121.188 305.912 121.188H135.429Z" fill="#F464D4"/>
<path d="M135.429 141.832C134.471 141.834 133.554 142.198 132.877 142.843C132.201 143.488 131.821 144.362 131.821 145.273C131.821 146.184 132.201 147.058 132.877 147.703C133.554 148.348 134.471 148.712 135.429 148.714H208.788C209.263 148.715 209.734 148.627 210.174 148.456C210.613 148.284 211.013 148.031 211.35 147.712C211.687 147.394 211.955 147.015 212.137 146.597C212.32 146.18 212.415 145.732 212.416 145.28C212.417 144.828 212.324 144.38 212.143 143.962C211.962 143.544 211.696 143.164 211.361 142.844C211.025 142.524 210.627 142.269 210.188 142.096C209.749 141.922 209.279 141.833 208.803 141.832C208.798 141.832 208.793 141.832 208.788 141.832H135.429Z" fill="#F464D4"/>
<path d="M168.35 281.993H48.426L76.6481 235.484C77.1539 234.65 77.8815 233.958 78.7576 233.476C79.6337 232.995 80.6276 232.742 81.6393 232.742C82.6509 232.742 83.6448 232.995 84.5209 233.476C85.397 233.958 86.1245 234.65 86.6303 235.484L98.6864 255.352L119.186 221.569C119.819 220.526 120.73 219.659 121.827 219.056C122.924 218.454 124.168 218.137 125.435 218.137C126.702 218.137 127.946 218.454 129.043 219.056C130.14 219.659 131.051 220.526 131.684 221.569L168.35 281.993ZM52.1162 279.966H164.66L129.838 222.583C129.392 221.847 128.75 221.237 127.977 220.812C127.204 220.387 126.328 220.164 125.435 220.164C124.543 220.164 123.666 220.387 122.893 220.812C122.12 221.237 121.478 221.847 121.032 222.583L98.6865 259.406L84.7848 236.497C84.4661 235.972 84.0077 235.535 83.4555 235.232C82.9034 234.929 82.277 234.769 81.6393 234.769C81.0017 234.769 80.3754 234.929 79.8232 235.232C79.271 235.535 78.8125 235.972 78.4938 236.497L52.1162 279.966Z" fill="#E6E6E6"/>
<path d="M321.757 281.993H201.833L230.055 235.484C230.56 234.65 231.288 233.958 232.164 233.477C233.04 232.995 234.034 232.742 235.046 232.742C236.057 232.742 237.051 232.995 237.927 233.477C238.804 233.958 239.531 234.65 240.037 235.484L252.093 255.352L272.593 221.57C273.226 220.526 274.137 219.659 275.234 219.057C276.331 218.454 277.575 218.137 278.841 218.137C280.108 218.137 281.352 218.454 282.449 219.057C283.546 219.659 284.457 220.526 285.09 221.57L321.757 281.993ZM205.523 279.966H318.066L283.245 222.583C282.799 221.848 282.157 221.237 281.384 220.812C280.611 220.388 279.734 220.164 278.842 220.164C277.949 220.164 277.072 220.388 276.299 220.812C275.526 221.237 274.884 221.848 274.438 222.583L252.093 259.406L238.191 236.497C237.873 235.972 237.414 235.536 236.862 235.232C236.31 234.929 235.683 234.769 235.046 234.769C234.408 234.769 233.782 234.929 233.23 235.232C232.677 235.536 232.219 235.972 231.9 236.497L205.523 279.966Z" fill="#E6E6E6"/>
<path d="M168.464 281.981H40.6245C39.2123 281.979 37.8584 281.445 36.8598 280.495C35.8612 279.545 35.2995 278.257 35.2979 276.913V209.027C35.2995 207.683 35.8612 206.395 36.8598 205.445C37.8584 204.495 39.2123 203.96 40.6245 203.959H168.464C169.876 203.96 171.23 204.495 172.228 205.445C173.227 206.395 173.788 207.683 173.79 209.027V276.913C173.788 278.257 173.227 279.545 172.228 280.495C171.23 281.445 169.876 281.979 168.464 281.981ZM40.6244 205.986C39.7771 205.987 38.9647 206.307 38.3655 206.877C37.7664 207.447 37.4294 208.22 37.4284 209.027V276.913C37.4294 277.719 37.7664 278.492 38.3655 279.062C38.9647 279.632 39.7771 279.953 40.6244 279.954H168.463C169.311 279.953 170.123 279.632 170.722 279.062C171.322 278.492 171.659 277.719 171.659 276.913V209.026C171.659 208.22 171.322 207.447 170.722 206.877C170.123 206.307 169.311 205.987 168.463 205.986L40.6244 205.986Z" fill="#E6E6E6"/>
<path d="M67.8646 498.685C67.3892 498.684 66.9183 498.772 66.4788 498.945C66.0394 499.118 65.64 499.371 65.3035 499.691C64.9671 500.01 64.7002 500.39 64.5181 500.807C64.3359 501.225 64.2422 501.673 64.2422 502.126C64.2422 502.578 64.3359 503.026 64.5181 503.444C64.7002 503.861 64.9671 504.241 65.3035 504.561C65.64 504.88 66.0394 505.134 66.4788 505.306C66.9183 505.479 67.3892 505.567 67.8646 505.566H141.224C142.183 505.566 143.103 505.204 143.781 504.559C144.459 503.913 144.84 503.038 144.84 502.126C144.84 501.213 144.459 500.338 143.781 499.693C143.103 499.047 142.183 498.685 141.224 498.685H67.8646Z" fill="#E6E6E6"/>
<path d="M67.8646 518.957C67.3892 518.956 66.9183 519.044 66.4788 519.217C66.0394 519.389 65.64 519.643 65.3035 519.962C64.9671 520.282 64.7002 520.662 64.5181 521.079C64.3359 521.497 64.2422 521.945 64.2422 522.397C64.2422 522.85 64.3359 523.298 64.5181 523.716C64.7002 524.133 64.9671 524.513 65.3035 524.833C65.64 525.152 66.0394 525.405 66.4788 525.578C66.9183 525.751 67.3892 525.839 67.8646 525.838H141.224C142.182 525.837 143.1 525.474 143.777 524.828C144.454 524.183 144.834 523.309 144.834 522.397C144.834 521.486 144.454 520.612 143.777 519.966C143.1 519.321 142.182 518.958 141.224 518.957H67.8646Z" fill="#E6E6E6"/>
<path d="M104.544 583.25C100.042 583.25 95.6409 581.98 91.8975 579.6C88.1542 577.221 85.2366 573.838 83.5137 569.881C81.7909 565.923 81.3401 561.569 82.2184 557.367C83.0967 553.166 85.2647 549.307 88.4482 546.278C91.6316 543.249 95.6876 541.187 100.103 540.351C104.519 539.515 109.096 539.944 113.255 541.583C117.414 543.223 120.97 545.999 123.471 549.56C125.972 553.122 127.307 557.309 127.307 561.593C127.3 567.335 124.9 572.84 120.632 576.9C116.365 580.96 110.579 583.244 104.544 583.25ZM104.544 541.962C100.463 541.962 96.4742 543.113 93.0813 545.27C89.6883 547.427 87.0438 550.493 85.4822 554.08C83.9206 557.667 83.512 561.614 84.3081 565.422C85.1042 569.23 87.0693 572.728 89.9548 575.473C92.8402 578.219 96.5166 580.089 100.519 580.846C104.521 581.603 108.67 581.215 112.44 579.729C116.21 578.243 119.432 575.727 121.699 572.499C123.966 569.271 125.176 565.475 125.176 561.593C125.17 556.388 122.994 551.399 119.126 547.718C115.258 544.038 110.014 541.968 104.544 541.962V541.962Z" fill="#E6E6E6"/>
<path d="M298.891 583.25C299.367 583.251 299.838 583.163 300.277 582.99C300.716 582.818 301.116 582.564 301.452 582.245C301.789 581.925 302.056 581.546 302.238 581.128C302.42 580.71 302.514 580.262 302.514 579.81C302.514 579.357 302.42 578.91 302.238 578.492C302.056 578.074 301.789 577.694 301.452 577.375C301.116 577.055 300.716 576.802 300.277 576.629C299.838 576.457 299.367 576.368 298.891 576.369H225.532C224.573 576.369 223.653 576.732 222.975 577.377C222.297 578.022 221.916 578.897 221.916 579.81C221.916 580.722 222.297 581.597 222.975 582.243C223.653 582.888 224.573 583.25 225.532 583.25H298.891Z" fill="#E6E6E6"/>
<path d="M298.891 562.979C299.367 562.98 299.838 562.891 300.277 562.719C300.716 562.546 301.116 562.293 301.452 561.973C301.789 561.653 302.056 561.274 302.238 560.856C302.42 560.438 302.514 559.99 302.514 559.538C302.514 559.086 302.42 558.638 302.238 558.22C302.056 557.802 301.789 557.422 301.452 557.103C301.116 556.783 300.716 556.53 300.277 556.357C299.838 556.185 299.367 556.096 298.891 556.097H225.532C224.573 556.097 223.653 556.46 222.975 557.105C222.297 557.75 221.916 558.625 221.916 559.538C221.916 560.45 222.297 561.326 222.975 561.971C223.653 562.616 224.573 562.979 225.532 562.979H298.891Z" fill="#E6E6E6"/>
<path d="M262.211 498.685C266.713 498.685 271.114 499.955 274.858 502.335C278.601 504.715 281.519 508.097 283.241 512.054C284.964 516.012 285.415 520.367 284.537 524.568C283.658 528.769 281.49 532.628 278.307 535.657C275.124 538.686 271.068 540.748 266.652 541.584C262.236 542.42 257.66 541.991 253.5 540.352C249.341 538.712 245.786 535.937 243.284 532.375C240.783 528.813 239.448 524.626 239.448 520.343V520.342C239.455 514.6 241.855 509.096 246.123 505.035C250.39 500.975 256.176 498.691 262.211 498.685ZM262.211 539.973C266.292 539.973 270.281 538.822 273.674 536.665C277.067 534.508 279.711 531.442 281.273 527.855C282.835 524.268 283.243 520.321 282.447 516.513C281.651 512.705 279.686 509.207 276.801 506.462C273.915 503.716 270.239 501.847 266.236 501.089C262.234 500.332 258.086 500.72 254.316 502.206C250.546 503.692 247.323 506.208 245.056 509.436C242.789 512.665 241.579 516.46 241.579 520.342V520.342C241.585 525.547 243.761 530.537 247.629 534.217C251.497 537.897 256.741 539.967 262.211 539.973V539.973Z" fill="#E6E6E6"/>
</svg>
