<svg width="154" height="31" viewBox="0 0 154 31" fill="none" xmlns="http://www.w3.org/2000/svg">
<path d="M11.37 9.39C8.94 8.91 7.26 8.16 7.26 6.66C7.26 5.13 9.12 3.96 12.3 3.96C18.99 3.96 18.81 8.64 18.81 8.64L24.3 7.14C24.3 7.14 23.79 0.27 12.51 0.27C5.22 0.27 1.74 3.6 1.74 7.23C1.74 10.17 4.26 12.48 8.76 13.44L14.7 14.7C17.91 15.39 19.74 15.78 19.74 17.91C19.74 19.68 17.58 20.7 14.04 20.7C5.7 20.7 6.39 15 6.39 15L0.9 16.41C1.08 19.77 4.17 24.39 14.13 24.39C20.4 24.39 25.23 22.02 25.23 17.49C25.23 14.37 23.49 11.82 17.79 10.68L11.37 9.39ZM33.7828 21.33C33.7828 21.33 35.0728 24.39 39.7228 24.39C44.7628 24.39 48.4828 20.76 48.4828 15.66C48.4828 10.56 44.7628 6.96 39.6928 6.96C34.3228 6.96 32.8528 11.16 32.8528 11.16L31.7128 7.35H28.8328V30.69H33.7828V21.33ZM38.1028 10.26C41.6728 10.26 43.2928 12.63 43.2928 15.66C43.2928 18.69 41.6728 21.09 38.1028 21.09C34.4728 21.09 33.0028 18.42 33.0028 15.66C33.0028 12.9 34.4728 10.26 38.1028 10.26ZM52.0734 15.66C52.0734 20.55 55.9134 24.39 62.3634 24.39C68.8734 24.39 72.7134 20.55 72.7134 15.66C72.7134 10.8 68.8734 6.96 62.3634 6.96C55.9134 6.96 52.0734 10.8 52.0734 15.66ZM57.2634 15.66C57.2634 12.93 58.4934 10.26 62.3634 10.26C66.2034 10.26 67.5234 12.93 67.5234 15.66C67.5234 18.39 66.2034 21.09 62.3634 21.09C58.4934 21.09 57.2634 18.39 57.2634 15.66ZM82.152 13.89C82.152 13.89 82.632 10.26 84.732 10.26C85.302 10.26 86.052 10.53 86.052 11.76C86.052 14.04 85.542 15.72 85.542 15.72L90.342 14.49C90.342 14.49 90.732 13.38 90.732 11.31C90.732 8.97 89.712 6.96 86.262 6.96C81.432 6.96 81.492 12.06 81.492 12.06L80.082 7.35H77.202V24H82.152V13.89ZM91.6406 10.26H95.4806V18.18C95.4806 22.47 97.9406 24.39 101.961 24.39C106.251 24.39 108.231 21.93 108.231 21.93L107.271 18.69C107.271 18.69 105.951 21.09 103.311 21.09C101.181 21.09 100.371 19.86 100.371 17.82V10.26H108.021V7.35H100.371V1.08L95.6006 4.08V7.35H91.6406V10.26ZM110.638 24H128.188V21.09H116.878L128.188 10.56V7.35H110.638V10.26H122.128L110.638 20.79V24ZM148.74 19.44L149.01 13.23C149.13 9.84 146.28 6.96 140.88 6.96C132.48 6.96 130.89 12.63 130.89 12.63L136.05 13.95C136.05 13.95 136.08 10.26 140.64 10.26C143.7 10.26 144.06 12.12 144.06 13.65C134.94 14.43 131.67 17.64 131.67 20.43C131.67 22.95 133.53 24.39 136.59 24.39C141.75 24.39 144.57 19.02 144.72 18.75C144.72 22.11 145.62 24.39 149.19 24.39C151.8 24.39 153.18 22.83 153.18 22.83L152.19 19.59C152.19 19.59 151.32 21.09 149.94 21.09C149.04 21.09 148.71 20.37 148.74 19.44ZM136.83 19.41C136.83 17.82 138.6 15.75 144.06 15.24V16.41C144.06 16.41 142.05 21.09 138.57 21.09C137.07 21.09 136.83 20.13 136.83 19.41Z" fill="white"/>
</svg>
